# Blender 4.2.0
# www.blender.org
mtllib bunkbed-pre-design.mtl
o Plane
v -1.855068 0.000000 3.061954
v 1.891432 0.000000 3.061954
v 1.891432 0.000000 -2.490487
v -1.156568 0.000000 3.061954
v -1.156568 0.000000 -0.064787
v -1.855068 0.000000 0.036813
v -0.445368 0.000000 3.061954
v -0.534268 0.000000 -2.490487
v -1.855068 0.000000 0.748013
v -1.855068 0.000000 -0.064787
v -0.534268 0.000000 -0.064787
v -0.534268 0.000000 -0.583027
v -1.156568 0.000000 -0.583027
v -0.534268 0.000000 -2.165844
v -1.156568 0.000000 -2.165844
v -1.855068 2.743200 3.061954
v 1.891432 2.743200 3.061954
v 1.891432 2.743200 -2.490487
v -1.156568 2.743200 3.061954
v -1.156568 2.743200 -0.064787
v -1.855068 2.743200 0.036813
v -0.445368 2.743200 3.061954
v -0.534268 2.743200 -2.490487
v -1.855068 2.743200 0.748013
v -1.855068 2.743200 -0.064787
v -0.534268 2.743200 -0.064787
v -0.534268 2.743200 -0.583027
v -1.156568 2.743200 -0.583027
v -0.534268 2.743200 -2.165844
v -1.156568 2.743200 -2.165844
v -1.855068 2.184400 3.061954
v -1.855068 2.184400 0.748013
v 1.891432 2.184400 3.061954
v -0.445368 2.184400 3.061954
v -1.156568 2.184400 3.061954
v -1.156568 2.184400 -0.583027
v -0.534268 2.184400 -0.583027
v -0.534268 2.184400 -2.490487
v -1.156568 2.184400 -0.064787
v -1.855068 2.184400 -0.064787
v -1.855068 2.184400 0.036813
v -0.534268 2.184400 -2.165844
v -1.156568 2.184400 -2.165844
v 1.891432 2.184400 -2.490487
v -0.534268 2.184400 -0.064787
v -0.623168 0.000000 -0.583027
v -0.623168 0.000000 -2.165844
v -0.623168 2.743200 -0.583027
v -0.623168 2.743200 -2.165844
v -0.623168 2.184400 -2.165844
v -0.623168 2.184400 -0.583027
v -1.156568 2.184400 -0.153687
v -1.156568 0.000000 -0.153687
v -1.156568 2.743200 -0.153687
v -0.623168 2.184400 -0.153687
v -0.623168 0.000000 -0.153687
v -0.623168 2.743200 -0.153687
v -1.156568 2.184400 -2.490487
v -1.156568 2.743200 -2.490487
v -1.156568 0.000000 -2.490487
v -0.623168 0.000000 -2.490487
v -0.623168 2.743200 -2.490487
v -0.623168 2.184400 -2.490487
v 0.540066 0.000000 3.061954
v 0.540066 2.743200 3.061954
v 0.540066 2.184400 3.061954
vn 1.0000 -0.0000 -0.0000
vn -0.0000 -0.0000 1.0000
vn -0.0000 -0.0000 -1.0000
vn -1.0000 -0.0000 -0.0000
vt 0.324265 1.000000
vt 0.000000 0.000000
vt 0.000000 0.250000
vt 0.324265 0.600236
vt 0.609224 0.000000
vt 0.324265 0.000000
vt 0.324265 0.500000
vt 0.000000 0.500000
vt 1.000000 1.000000
vt 0.324265 0.611214
vt 0.324265 0.981675
vt 0.324265 0.981675
vt 0.324265 0.611214
vt 0.609224 0.000000
vt 1.000000 0.000000
s 0
f 42/1/1 38/1/1 23/1/1 29/1/1
f 31/2/1 32/3/1 24/3/1 16/2/1
f 51/4/2 37/4/2 27/4/2 48/4/2
f 66/5/3 34/6/3 22/6/3 65/5/3
f 39/7/3 40/8/3 25/8/3 20/7/3
f 35/6/3 31/2/3 16/2/3 19/6/3
f 34/6/3 35/6/3 19/6/3 22/6/3
f 41/8/1 40/8/1 25/8/1 21/8/1
f 49/1/1 50/1/1 63/1/1 62/1/1
f 38/1/2 44/9/2 18/9/2 23/1/2
f 45/7/1 37/4/1 27/4/1 26/7/1
f 45/7/3 39/7/3 20/7/3 26/7/3
f 36/10/4 43/11/4 15/12/4 13/13/4
f 7/6/3 4/6/3 35/6/3 34/6/3
f 4/6/3 1/2/3 31/2/3 35/6/3
f 64/14/3 7/6/3 34/6/3 66/5/3
f 1/2/1 9/3/1 32/3/1 31/2/1
f 28/13/4 30/12/4 43/11/4 36/10/4
f 11/7/3 5/7/3 39/7/3 45/7/3
f 11/7/1 12/4/1 37/4/1 45/7/1
f 8/1/2 3/9/2 44/9/2 38/1/2
f 15/12/4 43/11/4 58/11/4 60/12/4
f 6/8/1 10/8/1 40/8/1 41/8/1
f 5/7/3 10/8/3 40/8/3 39/7/3
f 46/4/2 12/4/2 37/4/2 51/4/2
f 14/1/1 8/1/1 38/1/1 42/1/1
f 32/3/1 41/8/1 21/8/1 24/3/1
f 51/4/1 48/4/1 57/4/1 55/4/1
f 14/1/3 47/1/3 50/1/3 42/1/3
f 42/1/3 50/1/3 49/1/3 29/1/3
f 28/13/4 36/10/4 52/10/4 54/13/4
f 53/13/2 56/4/2 55/4/2 52/10/2
f 52/10/2 55/4/2 57/4/2 54/13/2
f 36/10/4 13/13/4 53/13/4 52/10/4
f 46/4/1 51/4/1 55/4/1 56/4/1
f 63/1/3 58/11/3 59/12/3 62/1/3
f 61/1/3 60/12/3 58/11/3 63/1/3
f 43/11/4 30/12/4 59/12/4 58/11/4
f 50/1/1 47/1/1 61/1/1 63/1/1
f 2/15/3 64/14/3 66/5/3 33/15/3
f 33/15/3 66/5/3 65/5/3 17/15/3
o Plane.001
v 1.891432 2.743200 3.061954
v 1.891432 0.000000 3.061954
v 1.891432 2.743200 -2.490487
v 1.891432 0.000000 -2.490487
v 1.891432 2.743200 1.728454
v 1.891432 0.000000 1.728454
v 1.891432 2.501900 3.061954
v 1.891432 2.501900 -2.490487
v 1.891432 2.501900 1.728454
v 1.891432 0.889000 3.061954
v 1.891432 0.889000 -2.490487
v 1.891432 0.889000 1.728454
v 1.891432 0.000000 0.198104
v 1.891432 2.743200 0.198104
v 1.891432 2.501900 0.198104
v 1.891432 0.889000 0.198104
v 2.094632 0.889000 1.728454
v 2.094632 2.501900 1.728454
v 2.094632 2.501900 0.198104
v 2.094632 0.889000 0.198104
vn 1.0000 -0.0000 -0.0000
vn -0.0000 1.0000 -0.0000
vn -0.0000 -0.0000 1.0000
vn -0.0000 -1.0000 -0.0000
vn -0.0000 -0.0000 -1.0000
vt 1.000000 0.621441
vt 1.000000 1.000000
vt 1.000000 0.000000
vt 1.000000 0.242882
vt 1.000000 0.242882
vt 0.000000 0.000000
vt 0.000000 0.242882
vt 0.000000 0.621441
vt 0.000000 1.000000
s 0
f 82/16/5 79/16/5 70/17/5 77/17/5
f 76/18/5 68/18/5 72/19/5 78/20/5
f 67/21/5 73/21/5 75/22/5 71/22/5
f 80/23/5 81/23/5 74/24/5 69/24/5
f 73/21/5 76/18/5 78/20/5 75/22/5
f 81/23/5 82/16/5 77/17/5 74/24/5
f 81/23/6 75/22/6 84/22/6 85/23/6
f 71/22/5 75/22/5 81/23/5 80/23/5
f 78/20/5 72/19/5 79/16/5 82/16/5
f 75/22/7 78/20/7 83/20/7 84/22/7
f 78/20/8 82/16/8 86/16/8 83/20/8
f 82/16/9 81/23/9 85/23/9 86/16/9
o Cube
v -1.740768 0.000000 3.049253
v -1.740768 0.558800 3.049253
v -1.740768 0.000000 1.525254
v -1.740768 0.558800 1.525254
v 0.189632 0.000000 3.049253
v 0.189632 0.558800 3.049253
v 0.189632 0.000000 1.525254
v 0.189632 0.558800 1.525254
vn -1.0000 -0.0000 -0.0000
vn -0.0000 -0.0000 -1.0000
vn 1.0000 -0.0000 -0.0000
vn -0.0000 -0.0000 1.0000
vn -0.0000 -1.0000 -0.0000
vn -0.0000 1.0000 -0.0000
vt 0.375000 0.000000
vt 0.625000 0.000000
vt 0.625000 0.250000
vt 0.375000 0.250000
vt 0.625000 0.500000
vt 0.375000 0.500000
vt 0.625000 0.750000
vt 0.375000 0.750000
vt 0.625000 1.000000
vt 0.375000 1.000000
vt 0.125000 0.500000
vt 0.125000 0.750000
vt 0.875000 0.500000
vt 0.875000 0.750000
s 0
f 87/25/10 88/26/10 90/27/10 89/28/10
f 89/28/11 90/27/11 94/29/11 93/30/11
f 93/30/12 94/29/12 92/31/12 91/32/12
f 91/32/13 92/31/13 88/33/13 87/34/13
f 89/35/14 93/30/14 91/32/14 87/36/14
f 94/29/15 90/37/15 88/38/15 92/31/15
o Cube.001
v 1.878732 0.000000 -0.458486
v 1.878732 0.558800 -0.458486
v 0.888132 0.000000 -0.458486
v 0.888132 0.558800 -0.458486
v 1.878732 0.000000 -2.388886
v 1.878732 0.558800 -2.388886
v 0.888132 0.000000 -2.388886
v 0.888132 0.558800 -2.388886
vn -0.0000 -0.0000 1.0000
vn -1.0000 -0.0000 -0.0000
vn -0.0000 -0.0000 -1.0000
vn 1.0000 -0.0000 -0.0000
vn -0.0000 -1.0000 -0.0000
vn -0.0000 1.0000 -0.0000
vt 0.375000 0.000000
vt 0.625000 0.000000
vt 0.625000 0.250000
vt 0.375000 0.250000
vt 0.625000 0.500000
vt 0.375000 0.500000
vt 0.625000 0.750000
vt 0.375000 0.750000
vt 0.625000 1.000000
vt 0.375000 1.000000
vt 0.125000 0.500000
vt 0.125000 0.750000
vt 0.875000 0.500000
vt 0.875000 0.750000
s 0
f 95/39/16 96/40/16 98/41/16 97/42/16
f 97/42/17 98/41/17 102/43/17 101/44/17
f 101/44/18 102/43/18 100/45/18 99/46/18
f 99/46/19 100/45/19 96/47/19 95/48/19
f 97/49/20 101/44/20 99/46/20 95/50/20
f 102/43/21 98/51/21 96/52/21 100/45/21
o Cube.002
v 0.291232 1.615039 2.072395
v 0.291232 1.869039 2.072395
v 0.291232 1.615039 3.062995
v 0.291232 1.869039 3.062995
v -1.740768 1.615039 2.072395
v -1.740768 1.869039 2.072395
v -1.740768 1.615039 3.062995
v -1.740768 1.869039 3.062995
vn 1.0000 -0.0000 -0.0000
vn -0.0000 -0.0000 1.0000
vn -1.0000 -0.0000 -0.0000
vn -0.0000 -0.0000 -1.0000
vn -0.0000 -1.0000 -0.0000
vn -0.0000 1.0000 -0.0000
vt 0.375000 0.000000
vt 0.625000 0.000000
vt 0.625000 0.250000
vt 0.375000 0.250000
vt 0.625000 0.500000
vt 0.375000 0.500000
vt 0.625000 0.750000
vt 0.375000 0.750000
vt 0.625000 1.000000
vt 0.375000 1.000000
vt 0.125000 0.500000
vt 0.125000 0.750000
vt 0.875000 0.500000
vt 0.875000 0.750000
s 0
f 103/53/22 104/54/22 106/55/22 105/56/22
f 105/56/23 106/55/23 110/57/23 109/58/23
f 109/58/24 110/57/24 108/59/24 107/60/24
f 107/60/25 108/59/25 104/61/25 103/62/25
f 105/63/26 109/58/26 107/60/26 103/64/26
f 110/57/27 106/65/27 104/66/27 108/59/27
o Cube.005
v 1.878732 0.000000 -0.077486
v 1.878732 0.889000 -0.077486
v 0.888132 0.000000 -0.077486
v 0.888132 0.889000 -0.077486
v 1.878732 0.000000 -0.458486
v 1.878732 0.889000 -0.458486
v 0.888132 0.000000 -0.458486
v 0.888132 0.889000 -0.458486
v 1.878732 0.296333 -0.077486
v 1.878732 0.592667 -0.077486
v 0.888132 0.592667 -0.077486
v 0.888132 0.296333 -0.077486
v 0.888132 0.592667 -0.458486
v 0.888132 0.296333 -0.458486
v 1.878732 0.592667 -0.458486
v 1.878732 0.296333 -0.458486
v 1.866032 0.605367 -0.077486
v 1.866032 0.876300 -0.077486
v 0.900832 0.876300 -0.077486
v 0.900832 0.605367 -0.077486
v 1.866032 0.012700 -0.077486
v 1.866032 0.283633 -0.077486
v 0.900832 0.283633 -0.077486
v 0.900832 0.012700 -0.077486
v 1.866032 0.309033 -0.077486
v 1.866032 0.579967 -0.077486
v 0.900832 0.579967 -0.077486
v 0.900832 0.309033 -0.077486
v 1.866032 0.605367 -0.277955
v 1.866032 0.876300 -0.277955
v 0.900832 0.605367 -0.277955
v 0.900832 0.876300 -0.277955
v 1.866032 0.012700 -0.277955
v 1.866032 0.283633 -0.277955
v 0.900832 0.012700 -0.277955
v 0.900832 0.283633 -0.277955
v 1.866032 0.309033 -0.277955
v 1.866032 0.579967 -0.277955
v 0.900832 0.309033 -0.277955
v 0.900832 0.579967 -0.277955
vn -0.0000 1.0000 -0.0000
vn -1.0000 -0.0000 -0.0000
vn -0.0000 -0.0000 -1.0000
vn 1.0000 -0.0000 -0.0000
vn -0.0000 -1.0000 -0.0000
vn -0.0000 -0.0000 1.0000
vt 0.461905 0.246795
vt 0.461905 0.003205
vt 0.541667 0.250000
vt 0.625000 0.250000
vt 0.625000 0.500000
vt 0.541667 0.500000
vt 0.625000 0.750000
vt 0.541667 0.750000
vt 0.625000 1.000000
vt 0.541667 1.000000
vt 0.125000 0.500000
vt 0.375000 0.500000
vt 0.375000 0.750000
vt 0.125000 0.750000
vt 0.875000 0.500000
vt 0.875000 0.750000
vt 0.458333 0.750000
vt 0.458333 1.000000
vt 0.375000 1.000000
vt 0.458333 0.500000
vt 0.375000 0.250000
vt 0.458333 0.250000
vt 0.454762 0.003205
vt 0.454762 0.246795
vt 0.621429 0.246795
vt 0.545238 0.246795
vt 0.541667 0.000000
vt 0.625000 0.000000
vt 0.621429 0.003205
vt 0.545238 0.003205
vt 0.375000 0.000000
vt 0.458333 0.000000
vt 0.378571 0.003205
vt 0.378571 0.246795
vt 0.538095 0.003205
vt 0.538095 0.246795
s 0
f 138/67/28 135/68/28 147/68/28 149/67/28
f 121/69/29 114/70/29 118/71/29 123/72/29
f 123/72/30 118/71/30 116/73/30 125/74/30
f 125/74/31 116/73/31 112/75/31 120/76/31
f 113/77/32 117/78/32 115/79/32 111/80/32
f 118/71/28 114/81/28 112/82/28 116/73/28
f 115/79/31 126/83/31 119/84/31 111/85/31
f 126/83/31 125/74/31 120/76/31 119/84/31
f 117/78/30 124/86/30 126/83/30 115/79/30
f 124/86/30 123/72/30 125/74/30 126/83/30
f 113/87/29 122/88/29 124/86/29 117/78/29
f 122/88/29 121/69/29 123/72/29 124/86/29
f 132/89/32 133/90/32 146/90/32 144/89/32
f 129/91/31 130/92/31 141/92/31 142/91/31
f 120/93/33 112/94/33 128/95/33 127/96/33
f 112/94/33 114/70/33 129/91/33 128/95/33
f 114/70/33 121/69/33 130/92/33 129/91/33
f 121/69/33 120/93/33 127/96/33 130/92/33
f 111/97/33 119/98/33 132/89/33 131/99/33
f 119/98/33 122/88/33 133/90/33 132/89/33
f 122/88/33 113/87/33 134/100/33 133/90/33
f 113/87/33 111/97/33 131/99/33 134/100/33
f 119/98/33 120/93/33 136/101/33 135/68/33
f 120/93/33 121/69/33 137/102/33 136/101/33
f 121/69/33 122/88/33 138/67/33 137/102/33
f 122/88/33 119/98/33 135/68/33 138/67/33
f 139/96/33 140/95/33 142/91/33 141/92/33
f 143/99/33 144/89/33 146/90/33 145/100/33
f 147/68/33 148/101/33 150/102/33 149/67/33
f 127/96/29 128/95/29 140/95/29 139/96/29
f 133/90/31 134/100/31 145/100/31 146/90/31
f 136/101/32 137/102/32 150/102/32 148/101/32
f 130/92/28 127/96/28 139/96/28 141/92/28
f 131/99/29 132/89/29 144/89/29 143/99/29
f 137/102/31 138/67/31 149/67/31 150/102/31
f 128/95/32 129/91/32 142/91/32 140/95/32
f 134/100/28 131/99/28 143/99/28 145/100/28
f 135/68/29 136/101/29 148/101/29 147/68/29
o Cube.003
v 0.189632 0.000000 2.173995
v 0.189632 2.113543 2.173995
v 0.189632 0.000000 2.072395
v 0.189632 2.113543 2.072395
v 0.291232 0.000000 2.173995
v 0.291232 2.113543 2.173995
v 0.291232 0.000000 2.072395
v 0.291232 2.113543 2.072395
vn -1.0000 -0.0000 -0.0000
vn -0.0000 -0.0000 -1.0000
vn 1.0000 -0.0000 -0.0000
vn -0.0000 -0.0000 1.0000
vn -0.0000 -1.0000 -0.0000
vn -0.0000 1.0000 -0.0000
vt 0.375000 0.000000
vt 0.625000 0.000000
vt 0.625000 0.250000
vt 0.375000 0.250000
vt 0.625000 0.500000
vt 0.375000 0.500000
vt 0.625000 0.750000
vt 0.375000 0.750000
vt 0.625000 1.000000
vt 0.375000 1.000000
vt 0.125000 0.500000
vt 0.125000 0.750000
vt 0.875000 0.500000
vt 0.875000 0.750000
s 0
f 151/103/34 152/104/34 154/105/34 153/106/34
f 153/106/35 154/105/35 158/107/35 157/108/35
f 157/108/36 158/107/36 156/109/36 155/110/36
f 155/110/37 156/109/37 152/111/37 151/112/37
f 153/113/38 157/108/38 155/110/38 151/114/38
f 158/107/39 154/115/39 152/116/39 156/109/39
o Cube.004
v 0.189632 0.000000 3.049253
v 0.189632 2.113543 3.049253
v 0.189632 0.000000 2.947653
v 0.189632 2.113543 2.947653
v 0.291232 0.000000 3.049253
v 0.291232 2.113543 3.049253
v 0.291232 0.000000 2.947653
v 0.291232 2.113543 2.947653
vn -1.0000 -0.0000 -0.0000
vn -0.0000 -0.0000 -1.0000
vn 1.0000 -0.0000 -0.0000
vn -0.0000 -0.0000 1.0000
vn -0.0000 -1.0000 -0.0000
vn -0.0000 1.0000 -0.0000
vt 0.375000 0.000000
vt 0.625000 0.000000
vt 0.625000 0.250000
vt 0.375000 0.250000
vt 0.625000 0.500000
vt 0.375000 0.500000
vt 0.625000 0.750000
vt 0.375000 0.750000
vt 0.625000 1.000000
vt 0.375000 1.000000
vt 0.125000 0.500000
vt 0.125000 0.750000
vt 0.875000 0.500000
vt 0.875000 0.750000
s 0
f 159/117/40 160/118/40 162/119/40 161/120/40
f 161/120/41 162/119/41 166/121/41 165/122/41
f 165/122/42 166/121/42 164/123/42 163/124/42
f 163/124/43 164/123/43 160/125/43 159/126/43
f 161/127/44 165/122/44 163/124/44 159/128/44
f 166/121/45 162/129/45 160/130/45 164/123/45
o Cube.006
v -1.842368 0.000000 2.173995
v -1.842368 2.113543 2.173995
v -1.842368 0.000000 2.072395
v -1.842368 2.113543 2.072395
v -1.740768 0.000000 2.173995
v -1.740768 2.113543 2.173995
v -1.740768 0.000000 2.072395
v -1.740768 2.113543 2.072395
vn -1.0000 -0.0000 -0.0000
vn -0.0000 -0.0000 -1.0000
vn 1.0000 -0.0000 -0.0000
vn -0.0000 -0.0000 1.0000
vn -0.0000 -1.0000 -0.0000
vn -0.0000 1.0000 -0.0000
vt 0.375000 0.000000
vt 0.625000 0.000000
vt 0.625000 0.250000
vt 0.375000 0.250000
vt 0.625000 0.500000
vt 0.375000 0.500000
vt 0.625000 0.750000
vt 0.375000 0.750000
vt 0.625000 1.000000
vt 0.375000 1.000000
vt 0.125000 0.500000
vt 0.125000 0.750000
vt 0.875000 0.500000
vt 0.875000 0.750000
s 0
f 167/131/46 168/132/46 170/133/46 169/134/46
f 169/134/47 170/133/47 174/135/47 173/136/47
f 173/136/48 174/135/48 172/137/48 171/138/48
f 171/138/49 172/137/49 168/139/49 167/140/49
f 169/141/50 173/136/50 171/138/50 167/142/50
f 174/135/51 170/143/51 168/144/51 172/137/51
o Cube.007
v -1.842368 0.000000 3.049253
v -1.842368 2.113543 3.049253
v -1.842368 0.000000 2.947653
v -1.842368 2.113543 2.947653
v -1.740768 0.000000 3.049253
v -1.740768 2.113543 3.049253
v -1.740768 0.000000 2.947653
v -1.740768 2.113543 2.947653
vn -1.0000 -0.0000 -0.0000
vn -0.0000 -0.0000 -1.0000
vn 1.0000 -0.0000 -0.0000
vn -0.0000 -0.0000 1.0000
vn -0.0000 -1.0000 -0.0000
vn -0.0000 1.0000 -0.0000
vt 0.375000 0.000000
vt 0.625000 0.000000
vt 0.625000 0.250000
vt 0.375000 0.250000
vt 0.625000 0.500000
vt 0.375000 0.500000
vt 0.625000 0.750000
vt 0.375000 0.750000
vt 0.625000 1.000000
vt 0.375000 1.000000
vt 0.125000 0.500000
vt 0.125000 0.750000
vt 0.875000 0.500000
vt 0.875000 0.750000
s 0
f 175/145/52 176/146/52 178/147/52 177/148/52
f 177/148/53 178/147/53 182/149/53 181/150/53
f 181/150/54 182/149/54 180/151/54 179/152/54
f 179/152/55 180/151/55 176/153/55 175/154/55
f 177/155/56 181/150/56 179/152/56 175/156/56
f 182/149/57 178/157/57 176/158/57 180/151/57
o Cube.008
v -1.842368 0.000000 3.049253
v -1.842368 1.039023 3.049253
v -1.842368 0.000000 1.525254
v -1.842368 1.039023 1.525254
v -1.740768 0.000000 3.049253
v -1.740768 1.039023 3.049253
v -1.740768 0.000000 1.525254
v -1.740768 1.039023 1.525254
vn -1.0000 -0.0000 -0.0000
vn -0.0000 -0.0000 -1.0000
vn 1.0000 -0.0000 -0.0000
vn -0.0000 -0.0000 1.0000
vn -0.0000 -1.0000 -0.0000
vn -0.0000 1.0000 -0.0000
vt 0.375000 0.000000
vt 0.625000 0.000000
vt 0.625000 0.250000
vt 0.375000 0.250000
vt 0.625000 0.500000
vt 0.375000 0.500000
vt 0.625000 0.750000
vt 0.375000 0.750000
vt 0.625000 1.000000
vt 0.375000 1.000000
vt 0.125000 0.500000
vt 0.125000 0.750000
vt 0.875000 0.500000
vt 0.875000 0.750000
s 0
f 183/159/58 184/160/58 186/161/58 185/162/58
f 185/162/59 186/161/59 190/163/59 189/164/59
f 189/164/60 190/163/60 188/165/60 187/166/60
f 187/166/61 188/165/61 184/167/61 183/168/61
f 185/169/62 189/164/62 187/166/62 183/170/62
f 190/163/63 186/171/63 184/172/63 188/165/63
o Cube.009
v -1.855068 0.609600 1.392040
v -1.855068 0.635000 1.392040
v -1.855068 0.609600 0.934839
v -1.855068 0.635000 0.934839
v -1.601068 0.609600 1.392040
v -1.601068 0.635000 1.392040
v -1.601068 0.609600 0.934839
v -1.601068 0.635000 0.934839
vn -1.0000 -0.0000 -0.0000
vn -0.0000 -0.0000 -1.0000
vn 1.0000 -0.0000 -0.0000
vn -0.0000 -0.0000 1.0000
vn -0.0000 -1.0000 -0.0000
vn -0.0000 1.0000 -0.0000
vt 0.375000 0.000000
vt 0.625000 0.000000
vt 0.625000 0.250000
vt 0.375000 0.250000
vt 0.625000 0.500000
vt 0.375000 0.500000
vt 0.625000 0.750000
vt 0.375000 0.750000
vt 0.625000 1.000000
vt 0.375000 1.000000
vt 0.125000 0.500000
vt 0.125000 0.750000
vt 0.875000 0.500000
vt 0.875000 0.750000
s 0
f 191/173/64 192/174/64 194/175/64 193/176/64
f 193/176/65 194/175/65 198/177/65 197/178/65
f 197/178/66 198/177/66 196/179/66 195/180/66
f 195/180/67 196/179/67 192/181/67 191/182/67
f 193/183/68 197/178/68 195/180/68 191/184/68
f 198/177/69 194/185/69 192/186/69 196/179/69
o Cube.010
v 0.189632 0.000000 3.049253
v 0.189632 0.726391 3.049253
v 0.189632 0.000000 1.525254
v 0.189632 0.726391 1.525254
v 0.291232 0.000000 3.049253
v 0.291232 0.726391 3.049253
v 0.291232 0.000000 1.525254
v 0.291232 0.726391 1.525254
vn -1.0000 -0.0000 -0.0000
vn -0.0000 -0.0000 -1.0000
vn 1.0000 -0.0000 -0.0000
vn -0.0000 -0.0000 1.0000
vn -0.0000 -1.0000 -0.0000
vn -0.0000 1.0000 -0.0000
vt 0.375000 0.000000
vt 0.625000 0.000000
vt 0.625000 0.250000
vt 0.375000 0.250000
vt 0.625000 0.500000
vt 0.375000 0.500000
vt 0.625000 0.750000
vt 0.375000 0.750000
vt 0.625000 1.000000
vt 0.375000 1.000000
vt 0.125000 0.500000
vt 0.125000 0.750000
vt 0.875000 0.500000
vt 0.875000 0.750000
s 0
f 199/187/70 200/188/70 202/189/70 201/190/70
f 201/190/71 202/189/71 206/191/71 205/192/71
f 205/192/72 206/191/72 204/193/72 203/194/72
f 203/194/73 204/193/73 200/195/73 199/196/73
f 201/197/74 205/192/74 203/194/74 199/198/74
f 206/191/75 202/199/75 200/200/75 204/193/75
o Plane.002
v -1.855068 0.000000 3.061954
v 1.891432 0.000000 3.061954
v 1.891432 0.000000 -2.490487
v -1.156568 0.000000 3.061954
v 1.891432 0.000000 -0.064787
v -1.156568 0.000000 -0.064787
v -1.855068 0.000000 0.036813
v 1.891432 0.000000 0.036813
v -1.156568 0.000000 0.036813
v -0.445368 0.000000 3.061954
v -0.534268 0.000000 -2.490487
v -0.445368 0.000000 0.036813
v -1.855068 0.000000 0.748013
v 1.891432 0.000000 0.748013
v -1.156568 0.000000 0.748013
v -0.445368 0.000000 0.748013
v -1.855068 0.000000 -0.064787
v -0.534268 0.000000 -0.064787
v 1.891432 0.000000 -0.583027
v -0.534268 0.000000 -0.583027
v -1.156568 0.000000 -0.583027
v 1.891432 0.000000 -2.165844
v -0.534268 0.000000 -2.165844
v -1.156568 0.000000 -2.165844
v -0.623168 0.000000 -0.583027
v -0.623168 0.000000 -2.165844
v -1.156568 0.000000 -0.153687
v -0.623168 0.000000 -0.153687
v -1.156568 0.000000 -2.490487
v -0.623168 0.000000 -2.490487
vn -0.0000 1.0000 -0.0000
vn -0.0000 -1.0000 -0.0000
vt 0.324265 1.000000
vt 1.000000 1.000000
vt 0.000000 0.500000
vt 0.324265 0.500000
vt 1.000000 0.500000
vt 0.324265 0.250000
vt 1.000000 0.250000
vt 0.000000 0.250000
vt 0.324265 0.000000
vt 0.000000 0.000000
vt 1.000000 0.000000
vt 1.000000 0.600236
vt 0.324265 0.600236
vt 0.324265 0.611214
vt 0.324265 0.981675
s 0
f 229/201/76 228/202/76 209/202/76 217/201/76
f 213/203/76 215/204/76 212/204/76 223/203/76
f 218/204/76 214/205/76 211/205/76 224/204/76
f 222/206/76 220/207/76 214/205/76 218/204/76
f 219/208/76 221/206/76 215/204/76 213/203/76
f 221/206/76 222/206/76 218/204/76 215/204/76
f 215/204/76 218/204/76 224/204/76 212/204/76
f 210/209/76 216/209/76 222/206/76 221/206/76
f 207/210/76 210/209/76 221/206/76 219/208/76
f 216/209/76 208/211/76 220/207/76 222/206/76
f 224/204/76 211/205/76 225/212/76 226/213/76
f 226/213/76 225/212/76 228/202/76 229/201/76
f 231/213/77 227/214/77 230/215/77 232/201/77
f 226/213/77 231/213/77 232/201/77 229/201/77
f 227/214/77 231/213/77 234/213/77 233/214/77
f 232/201/77 230/215/77 235/215/77 236/201/77
o Cube.011
v 0.291232 0.000000 2.998453
v 0.291232 2.113543 2.998453
v 0.291232 0.000000 2.947653
v 0.291232 2.113543 2.947653
v 0.367432 0.000000 2.998453
v 0.367432 2.113543 2.998453
v 0.367432 0.000000 2.947653
v 0.367432 2.113543 2.947653
vn -1.0000 -0.0000 -0.0000
vn -0.0000 -0.0000 -1.0000
vn 1.0000 -0.0000 -0.0000
vn -0.0000 -0.0000 1.0000
vn -0.0000 -1.0000 -0.0000
vn -0.0000 1.0000 -0.0000
vt 0.375000 0.000000
vt 0.625000 0.000000
vt 0.625000 0.250000
vt 0.375000 0.250000
vt 0.625000 0.500000
vt 0.375000 0.500000
vt 0.625000 0.750000
vt 0.375000 0.750000
vt 0.625000 1.000000
vt 0.375000 1.000000
vt 0.125000 0.500000
vt 0.125000 0.750000
vt 0.875000 0.500000
vt 0.875000 0.750000
s 0
f 237/216/78 238/217/78 240/218/78 239/219/78
f 239/219/79 240/218/79 244/220/79 243/221/79
f 243/221/80 244/220/80 242/222/80 241/223/80
f 241/223/81 242/222/81 238/224/81 237/225/81
f 239/226/82 243/221/82 241/223/82 237/227/82
f 244/220/83 240/228/83 238/229/83 242/222/83
o Cube.012
v 0.291232 0.000000 2.490453
v 0.291232 2.113543 2.490453
v 0.291232 0.000000 2.439653
v 0.291232 2.113543 2.439653
v 0.367432 0.000000 2.490453
v 0.367432 2.113543 2.490453
v 0.367432 0.000000 2.439653
v 0.367432 2.113543 2.439653
vn -1.0000 -0.0000 -0.0000
vn -0.0000 -0.0000 -1.0000
vn 1.0000 -0.0000 -0.0000
vn -0.0000 -0.0000 1.0000
vn -0.0000 -1.0000 -0.0000
vn -0.0000 1.0000 -0.0000
vt 0.375000 0.000000
vt 0.625000 0.000000
vt 0.625000 0.250000
vt 0.375000 0.250000
vt 0.625000 0.500000
vt 0.375000 0.500000
vt 0.625000 0.750000
vt 0.375000 0.750000
vt 0.625000 1.000000
vt 0.375000 1.000000
vt 0.125000 0.500000
vt 0.125000 0.750000
vt 0.875000 0.500000
vt 0.875000 0.750000
s 0
f 245/230/84 246/231/84 248/232/84 247/233/84
f 247/233/85 248/232/85 252/234/85 251/235/85
f 251/235/86 252/234/86 250/236/86 249/237/86
f 249/237/87 250/236/87 246/238/87 245/239/87
f 247/240/88 251/235/88 249/237/88 245/241/88
f 252/234/89 248/242/89 246/243/89 250/236/89
o Cube.013
v 0.291232 1.622457 2.490453
v 0.291232 1.622456 2.947653
v 0.291232 1.673257 2.490453
v 0.291232 1.673256 2.947653
v 0.367432 1.622457 2.490453
v 0.367432 1.622456 2.947653
v 0.367432 1.673257 2.490453
v 0.367432 1.673256 2.947653
v 0.291232 1.317656 2.490453
v 0.291232 1.317656 2.947653
v 0.291232 1.368456 2.490453
v 0.291232 1.368456 2.947653
v 0.367432 1.317656 2.490453
v 0.367432 1.317656 2.947653
v 0.367432 1.368456 2.490453
v 0.367432 1.368456 2.947653
v 0.291232 1.012856 2.490453
v 0.291232 1.012855 2.947653
v 0.291232 1.063655 2.490453
v 0.291232 1.063655 2.947653
v 0.367432 1.012856 2.490453
v 0.367432 1.012855 2.947653
v 0.367432 1.063655 2.490453
v 0.367432 1.063655 2.947653
v 0.291232 0.708055 2.490453
v 0.291232 0.708055 2.947653
v 0.291232 0.758855 2.490453
v 0.291232 0.758855 2.947653
v 0.367432 0.708055 2.490453
v 0.367432 0.708055 2.947653
v 0.367432 0.758855 2.490453
v 0.367432 0.758855 2.947653
v 0.291232 0.403255 2.490453
v 0.291232 0.403254 2.947653
v 0.291232 0.454054 2.490453
v 0.291232 0.454054 2.947653
v 0.367432 0.403255 2.490453
v 0.367432 0.403254 2.947653
v 0.367432 0.454054 2.490453
v 0.367432 0.454054 2.947653
v 0.291232 0.098454 2.490453
v 0.291232 0.098454 2.947653
v 0.291232 0.149254 2.490453
v 0.291232 0.149254 2.947653
v 0.367432 0.098454 2.490453
v 0.367432 0.098454 2.947653
v 0.367432 0.149254 2.490453
v 0.367432 0.149254 2.947653
vn -1.0000 -0.0000 -0.0000
vn -0.0000 1.0000 -0.0000
vn 1.0000 -0.0000 -0.0000
vn -0.0000 -1.0000 -0.0000
vn -0.0000 -0.0000 -1.0000
vn -0.0000 -0.0000 1.0000
vt 0.375000 0.000000
vt 0.625000 0.000000
vt 0.625000 0.250000
vt 0.375000 0.250000
vt 0.625000 0.500000
vt 0.375000 0.500000
vt 0.625000 0.750000
vt 0.375000 0.750000
vt 0.625000 1.000000
vt 0.375000 1.000000
vt 0.125000 0.500000
vt 0.125000 0.750000
vt 0.875000 0.500000
vt 0.875000 0.750000
s 0
f 253/244/90 254/245/90 256/246/90 255/247/90
f 255/247/91 256/246/91 260/248/91 259/249/91
f 259/249/92 260/248/92 258/250/92 257/251/92
f 257/251/93 258/250/93 254/252/93 253/253/93
f 255/254/94 259/249/94 257/251/94 253/255/94
f 260/248/95 256/256/95 254/257/95 258/250/95
f 261/244/90 262/245/90 264/246/90 263/247/90
f 263/247/91 264/246/91 268/248/91 267/249/91
f 267/249/92 268/248/92 266/250/92 265/251/92
f 265/251/93 266/250/93 262/252/93 261/253/93
f 263/254/94 267/249/94 265/251/94 261/255/94
f 268/248/95 264/256/95 262/257/95 266/250/95
f 269/244/90 270/245/90 272/246/90 271/247/90
f 271/247/91 272/246/91 276/248/91 275/249/91
f 275/249/92 276/248/92 274/250/92 273/251/92
f 273/251/93 274/250/93 270/252/93 269/253/93
f 271/254/94 275/249/94 273/251/94 269/255/94
f 276/248/95 272/256/95 270/257/95 274/250/95
f 277/244/90 278/245/90 280/246/90 279/247/90
f 279/247/91 280/246/91 284/248/91 283/249/91
f 283/249/92 284/248/92 282/250/92 281/251/92
f 281/251/93 282/250/93 278/252/93 277/253/93
f 279/254/94 283/249/94 281/251/94 277/255/94
f 284/248/95 280/256/95 278/257/95 282/250/95
f 285/244/90 286/245/90 288/246/90 287/247/90
f 287/247/91 288/246/91 292/248/91 291/249/91
f 291/249/92 292/248/92 290/250/92 289/251/92
f 289/251/93 290/250/93 286/252/93 285/253/93
f 287/254/94 291/249/94 289/251/94 285/255/94
f 292/248/95 288/256/95 286/257/95 290/250/95
f 293/244/90 294/245/90 296/246/90 295/247/90
f 295/247/91 296/246/91 300/248/91 299/249/91
f 299/249/92 300/248/92 298/250/92 297/251/92
f 297/251/93 298/250/93 294/252/93 293/253/93
f 295/254/94 299/249/94 297/251/94 293/255/94
f 300/248/95 296/256/95 294/257/95 298/250/95
o Cube.014
v -1.880414 0.000000 0.748013
v -1.880414 2.184400 0.748013
v -1.880414 0.000000 0.036813
v -1.880414 2.184400 0.036813
v -1.829614 0.000000 0.748013
v -1.829614 2.184400 0.748013
v -1.829614 0.000000 0.036813
v -1.829614 2.184400 0.036813
v -1.880414 0.436880 0.748013
v -1.880414 0.873760 0.748013
v -1.880414 1.310640 0.748013
v -1.880414 1.747520 0.748013
v -1.880414 1.747520 0.036813
v -1.880414 1.310640 0.036813
v -1.880414 0.873760 0.036813
v -1.880414 0.436880 0.036813
v -1.829614 1.747520 0.036813
v -1.829614 1.310640 0.036813
v -1.829614 0.873760 0.036813
v -1.829614 0.436880 0.036813
v -1.829614 1.747520 0.748013
v -1.829614 1.310640 0.748013
v -1.829614 0.873760 0.748013
v -1.829614 0.436880 0.748013
v -1.829614 1.829435 0.113013
v -1.829614 2.102485 0.113013
v -1.829614 2.102485 0.671813
v -1.829614 1.829435 0.671813
v -1.829614 0.081915 0.113013
v -1.829614 0.354965 0.113013
v -1.829614 0.354965 0.671813
v -1.829614 0.081915 0.671813
v -1.829614 0.518795 0.113013
v -1.829614 0.791845 0.113013
v -1.829614 0.791845 0.671813
v -1.829614 0.518795 0.671813
v -1.829614 0.955675 0.113013
v -1.829614 1.228725 0.113013
v -1.829614 1.228725 0.671813
v -1.829614 0.955675 0.671813
v -1.829614 1.392555 0.113013
v -1.829614 1.665605 0.113013
v -1.829614 1.665605 0.671813
v -1.829614 1.392555 0.671813
v -1.880414 1.829435 0.671813
v -1.880414 2.102485 0.671813
v -1.880414 2.102485 0.113013
v -1.880414 1.829435 0.113013
v -1.880414 0.081915 0.671813
v -1.880414 0.354965 0.671813
v -1.880414 0.354965 0.113013
v -1.880414 0.081915 0.113013
v -1.880414 0.518795 0.671813
v -1.880414 0.791845 0.671813
v -1.880414 0.791845 0.113013
v -1.880414 0.518795 0.113013
v -1.880414 0.955675 0.671813
v -1.880414 1.228725 0.671813
v -1.880414 1.228725 0.113013
v -1.880414 0.955675 0.113013
v -1.880414 1.392555 0.671813
v -1.880414 1.665605 0.671813
v -1.880414 1.665605 0.113013
v -1.880414 1.392555 0.113013
v -1.867714 1.829435 0.671813
v -1.867714 2.102485 0.671813
v -1.867714 1.829435 0.113013
v -1.867714 2.102485 0.113013
v -1.867714 0.081915 0.671813
v -1.867714 0.354965 0.671813
v -1.867714 0.081915 0.113013
v -1.867714 0.354965 0.113013
v -1.867714 0.518795 0.671813
v -1.867714 0.791845 0.671813
v -1.867714 0.518795 0.113013
v -1.867714 0.791845 0.113013
v -1.867714 0.955675 0.671813
v -1.867714 1.228725 0.671813
v -1.867714 0.955675 0.113013
v -1.867714 1.228725 0.113013
v -1.867714 1.392555 0.671813
v -1.867714 1.665605 0.671813
v -1.867714 1.392555 0.113013
v -1.867714 1.665605 0.113013
v -1.842314 2.102485 0.113013
v -1.842314 1.829435 0.113013
v -1.842314 1.829435 0.671813
v -1.842314 2.102485 0.671813
v -1.842314 0.354965 0.113013
v -1.842314 0.081915 0.113013
v -1.842314 0.081915 0.671813
v -1.842314 0.354965 0.671813
v -1.842314 0.791845 0.113013
v -1.842314 0.518795 0.113013
v -1.842314 0.518795 0.671813
v -1.842314 0.791845 0.671813
v -1.842314 1.228725 0.113013
v -1.842314 0.955675 0.113013
v -1.842314 0.955675 0.671813
v -1.842314 1.228725 0.671813
v -1.842314 1.665605 0.113013
v -1.842314 1.392555 0.113013
v -1.842314 1.392555 0.671813
v -1.842314 1.665605 0.671813
vn -0.0000 -0.0000 -1.0000
vn -0.0000 1.0000 -0.0000
vn -0.0000 -0.0000 1.0000
vn -0.0000 -1.0000 -0.0000
vn 1.0000 -0.0000 -0.0000
vn -1.0000 -0.0000 -0.0000
vt 0.434375 0.026786
vt 0.465625 0.026786
vt 0.575000 0.250000
vt 0.625000 0.250000
vt 0.625000 0.500000
vt 0.575000 0.500000
vt 0.534375 0.723214
vt 0.534375 0.526786
vt 0.575000 0.750000
vt 0.625000 0.750000
vt 0.625000 1.000000
vt 0.575000 1.000000
vt 0.125000 0.500000
vt 0.375000 0.500000
vt 0.375000 0.750000
vt 0.125000 0.750000
vt 0.875000 0.500000
vt 0.875000 0.750000
vt 0.425000 0.750000
vt 0.425000 1.000000
vt 0.375000 1.000000
vt 0.475000 0.750000
vt 0.475000 1.000000
vt 0.525000 0.750000
vt 0.525000 1.000000
vt 0.465625 0.526786
vt 0.465625 0.723214
vt 0.615625 0.723214
vt 0.584375 0.723214
vt 0.484375 0.723214
vt 0.484375 0.526786
vt 0.415625 0.526786
vt 0.415625 0.723214
vt 0.375000 0.250000
vt 0.425000 0.250000
vt 0.425000 0.500000
vt 0.475000 0.250000
vt 0.475000 0.500000
vt 0.525000 0.250000
vt 0.525000 0.500000
vt 0.584375 0.223214
vt 0.584375 0.026786
vt 0.384375 0.026786
vt 0.415625 0.026786
vt 0.615625 0.026786
vt 0.565625 0.223214
vt 0.534375 0.223214
vt 0.615625 0.526786
vt 0.584375 0.526786
vt 0.384375 0.526786
vt 0.384375 0.723214
vt 0.434375 0.526786
vt 0.434375 0.723214
vt 0.515625 0.526786
vt 0.515625 0.723214
vt 0.565625 0.526786
vt 0.565625 0.723214
vt 0.575000 0.000000
vt 0.625000 0.000000
vt 0.615625 0.223214
vt 0.375000 0.000000
vt 0.425000 0.000000
vt 0.415625 0.223214
vt 0.384375 0.223214
vt 0.475000 0.000000
vt 0.465625 0.223214
vt 0.434375 0.223214
vt 0.525000 0.000000
vt 0.515625 0.026786
vt 0.484375 0.026786
vt 0.515625 0.223214
vt 0.484375 0.223214
vt 0.565625 0.026786
vt 0.534375 0.026786
s 0
f 353/258/96 354/259/96 374/259/96 373/258/96
f 313/260/96 304/261/96 308/262/96 317/263/96
f 344/264/97 341/265/97 402/265/97 403/264/97
f 321/266/98 306/267/98 302/268/98 312/269/98
f 303/270/99 307/271/99 305/272/99 301/273/99
f 308/262/97 304/274/97 302/275/97 306/267/97
f 305/272/98 324/276/98 309/277/98 301/278/98
f 324/276/98 323/279/98 310/280/98 309/277/98
f 323/279/98 322/281/98 311/282/98 310/280/98
f 322/281/98 321/266/98 312/269/98 311/282/98
f 334/283/99 335/284/99 396/284/99 393/283/99
f 327/285/96 328/286/96 387/286/96 388/285/96
f 340/287/97 337/288/97 398/288/97 399/287/97
f 330/289/99 331/290/99 392/290/99 389/289/99
f 303/291/96 316/292/96 320/293/96 307/271/96
f 316/292/96 315/294/96 319/295/96 320/293/96
f 315/294/96 314/296/96 318/297/96 319/295/96
f 314/296/96 313/260/96 317/263/96 318/297/96
f 348/298/97 345/299/97 365/299/97 367/298/97
f 349/300/96 350/301/96 370/301/96 369/300/96
f 345/299/96 346/302/96 366/302/96 365/299/96
f 363/303/98 364/304/98 383/304/98 384/303/98
f 317/263/100 308/262/100 326/305/100 325/306/100
f 308/262/100 306/267/100 327/285/100 326/305/100
f 306/267/100 321/266/100 328/286/100 327/285/100
f 321/266/100 317/263/100 325/306/100 328/286/100
f 307/271/100 320/293/100 330/289/100 329/307/100
f 320/293/100 324/276/100 331/290/100 330/289/100
f 324/276/100 305/272/100 332/308/100 331/290/100
f 305/272/100 307/271/100 329/307/100 332/308/100
f 320/293/100 319/295/100 334/283/100 333/309/100
f 319/295/100 323/279/100 335/284/100 334/283/100
f 323/279/100 324/276/100 336/310/100 335/284/100
f 324/276/100 320/293/100 333/309/100 336/310/100
f 319/295/100 318/297/100 338/311/100 337/288/100
f 318/297/100 322/281/100 339/312/100 338/311/100
f 322/281/100 323/279/100 340/287/100 339/312/100
f 323/279/100 319/295/100 337/288/100 340/287/100
f 318/297/100 317/263/100 342/313/100 341/265/100
f 317/263/100 321/266/100 343/314/100 342/313/100
f 321/266/100 322/281/100 344/264/100 343/314/100
f 322/281/100 318/297/100 341/265/100 344/264/100
f 312/315/101 302/316/101 346/302/101 345/299/101
f 302/316/101 304/261/101 347/317/101 346/302/101
f 304/261/101 313/260/101 348/298/101 347/317/101
f 313/260/101 312/315/101 345/299/101 348/298/101
f 301/318/101 309/319/101 350/301/101 349/300/101
f 309/319/101 316/292/101 351/320/101 350/301/101
f 316/292/101 303/291/101 352/321/101 351/320/101
f 303/291/101 301/318/101 349/300/101 352/321/101
f 309/319/101 310/322/101 354/259/101 353/258/101
f 310/322/101 315/294/101 355/323/101 354/259/101
f 315/294/101 316/292/101 356/324/101 355/323/101
f 316/292/101 309/319/101 353/258/101 356/324/101
f 310/322/101 311/325/101 358/326/101 357/327/101
f 311/325/101 314/296/101 359/328/101 358/326/101
f 314/296/101 315/294/101 360/329/101 359/328/101
f 315/294/101 310/322/101 357/327/101 360/329/101
f 311/325/101 312/315/101 362/330/101 361/331/101
f 312/315/101 313/260/101 363/303/101 362/330/101
f 313/260/101 314/296/101 364/304/101 363/303/101
f 314/296/101 311/325/101 361/331/101 364/304/101
f 365/299/101 366/302/101 368/317/101 367/298/101
f 369/300/101 370/301/101 372/320/101 371/321/101
f 373/258/101 374/259/101 376/323/101 375/324/101
f 377/327/101 378/326/101 380/328/101 379/329/101
f 381/331/101 382/330/101 384/303/101 383/304/101
f 352/321/97 349/300/97 369/300/97 371/321/97
f 357/327/96 358/326/96 378/326/96 377/327/96
f 346/302/99 347/317/99 368/317/99 366/302/99
f 356/324/97 353/258/97 373/258/97 375/324/97
f 361/331/96 362/330/96 382/330/96 381/331/96
f 350/301/99 351/320/99 372/320/99 370/301/99
f 360/329/97 357/327/97 377/327/97 379/329/97
f 347/317/98 348/298/98 367/298/98 368/317/98
f 354/259/99 355/323/99 376/323/99 374/259/99
f 364/304/97 361/331/97 381/331/97 383/304/97
f 351/320/98 352/321/98 371/321/98 372/320/98
f 358/326/99 359/328/99 380/328/99 378/326/99
f 355/323/98 356/324/98 375/324/98 376/323/98
f 362/330/99 363/303/99 384/303/99 382/330/99
f 359/328/98 360/329/98 379/329/98 380/328/98
f 386/306/100 385/305/100 388/285/100 387/286/100
f 390/307/100 389/289/100 392/290/100 391/308/100
f 394/309/100 393/283/100 396/284/100 395/310/100
f 398/288/100 397/311/100 400/312/100 399/287/100
f 402/265/100 401/313/100 404/314/100 403/264/100
f 331/290/96 332/308/96 391/308/96 392/290/96
f 338/311/99 339/312/99 400/312/99 397/311/99
f 335/284/96 336/310/96 395/310/96 396/284/96
f 342/313/99 343/314/99 404/314/99 401/313/99
f 339/312/96 340/287/96 399/287/96 400/312/96
f 343/314/96 344/264/96 403/264/96 404/314/96
f 325/306/98 326/305/98 385/305/98 386/306/98
f 329/307/98 330/289/98 389/289/98 390/307/98
f 328/286/97 325/306/97 386/306/97 387/286/97
f 333/309/98 334/283/98 393/283/98 394/309/98
f 332/308/97 329/307/97 390/307/97 391/308/97
f 337/288/98 338/311/98 397/311/98 398/288/98
f 326/305/99 327/285/99 388/285/99 385/305/99
f 336/310/97 333/309/97 394/309/97 395/310/97
f 341/265/98 342/313/98 401/313/98 402/265/98
o Cube.015
v 1.878732 0.000000 -2.388886
v 1.878732 0.889000 -2.388886
v 0.888132 0.000000 -2.388886
v 0.888132 0.889000 -2.388886
v 1.878732 0.000000 -2.490487
v 1.878732 0.889000 -2.490487
v 0.888132 0.000000 -2.490487
v 0.888132 0.889000 -2.490487
vn -0.0000 -0.0000 1.0000
vn -1.0000 -0.0000 -0.0000
vn -0.0000 -0.0000 -1.0000
vn 1.0000 -0.0000 -0.0000
vn -0.0000 -1.0000 -0.0000
vn -0.0000 1.0000 -0.0000
vt 0.375000 0.000000
vt 0.625000 0.000000
vt 0.625000 0.250000
vt 0.375000 0.250000
vt 0.625000 0.500000
vt 0.375000 0.500000
vt 0.625000 0.750000
vt 0.375000 0.750000
vt 0.625000 1.000000
vt 0.375000 1.000000
vt 0.125000 0.500000
vt 0.125000 0.750000
vt 0.875000 0.500000
vt 0.875000 0.750000
s 0
f 405/332/102 406/333/102 408/334/102 407/335/102
f 407/335/103 408/334/103 412/336/103 411/337/103
f 411/337/104 412/336/104 410/338/104 409/339/104
f 409/339/105 410/338/105 406/340/105 405/341/105
f 407/342/106 411/337/106 409/339/106 405/343/106
f 412/336/107 408/344/107 406/345/107 410/338/107
